<mxfile host="app.diagrams.net" modified="2021-01-15T11:35:51.125Z" agent="5.0 (Windows NT 10.0; Win64; x64) AppleWebKit/537.36 (KHTML, like Gecko) Chrome/87.0.4280.141 Safari/537.36 Edg/87.0.664.75" etag="fggAoTom-nFjRw2tSESi" version="14.2.2" type="github">
  <diagram id="nPa2319OGCJIGQZwXezo" name="Page-1">
    <mxGraphModel dx="868" dy="482" grid="1" gridSize="10" guides="1" tooltips="1" connect="1" arrows="1" fold="1" page="1" pageScale="1" pageWidth="850" pageHeight="1100" math="0" shadow="0">
      <root>
        <mxCell id="0" />
        <mxCell id="1" parent="0" />
        <mxCell id="Vb_1YllQr1_10Pe3Wf6P-3" style="edgeStyle=orthogonalEdgeStyle;rounded=0;orthogonalLoop=1;jettySize=auto;html=1;exitX=1;exitY=0.25;exitDx=0;exitDy=0;entryX=0;entryY=0.25;entryDx=0;entryDy=0;" edge="1" parent="1" source="Vb_1YllQr1_10Pe3Wf6P-1" target="Vb_1YllQr1_10Pe3Wf6P-4">
          <mxGeometry relative="1" as="geometry">
            <mxPoint x="400" y="78" as="targetPoint" />
          </mxGeometry>
        </mxCell>
        <mxCell id="Vb_1YllQr1_10Pe3Wf6P-1" value="NGIC Workspace" style="whiteSpace=wrap;html=1;aspect=fixed;fillColor=#ffe6cc;strokeColor=#d79b00;" vertex="1" parent="1">
          <mxGeometry x="130" y="60" width="80" height="80" as="geometry" />
        </mxCell>
        <mxCell id="Vb_1YllQr1_10Pe3Wf6P-4" value="HRTG&lt;br&gt;Token generation service" style="whiteSpace=wrap;html=1;aspect=fixed;fillColor=#d5e8d4;strokeColor=#82b366;" vertex="1" parent="1">
          <mxGeometry x="400" y="60" width="80" height="80" as="geometry" />
        </mxCell>
        <mxCell id="Vb_1YllQr1_10Pe3Wf6P-5" style="edgeStyle=orthogonalEdgeStyle;rounded=0;orthogonalLoop=1;jettySize=auto;html=1;exitX=1;exitY=0.25;exitDx=0;exitDy=0;entryX=0;entryY=0.25;entryDx=0;entryDy=0;" edge="1" parent="1">
          <mxGeometry relative="1" as="geometry">
            <mxPoint x="210" y="120" as="targetPoint" />
            <mxPoint x="400" y="120" as="sourcePoint" />
          </mxGeometry>
        </mxCell>
        <mxCell id="Vb_1YllQr1_10Pe3Wf6P-6" value="1. POST /Api to fetch &lt;br&gt;keyloak token" style="text;html=1;align=center;verticalAlign=middle;resizable=0;points=[];autosize=1;" vertex="1" parent="1">
          <mxGeometry x="245" y="45" width="130" height="30" as="geometry" />
        </mxCell>
        <mxCell id="Vb_1YllQr1_10Pe3Wf6P-7" value="2. Token Received" style="text;html=1;align=center;verticalAlign=middle;resizable=0;points=[];autosize=1;" vertex="1" parent="1">
          <mxGeometry x="250" y="125" width="110" height="20" as="geometry" />
        </mxCell>
        <mxCell id="Vb_1YllQr1_10Pe3Wf6P-8" value="" style="endArrow=classic;html=1;exitX=0.613;exitY=1.013;exitDx=0;exitDy=0;exitPerimeter=0;" edge="1" parent="1" source="Vb_1YllQr1_10Pe3Wf6P-1">
          <mxGeometry width="50" height="50" relative="1" as="geometry">
            <mxPoint x="180" y="170" as="sourcePoint" />
            <mxPoint x="400" y="240" as="targetPoint" />
            <Array as="points">
              <mxPoint x="179" y="240" />
            </Array>
          </mxGeometry>
        </mxCell>
        <mxCell id="Vb_1YllQr1_10Pe3Wf6P-9" value="HRTG Server" style="whiteSpace=wrap;html=1;aspect=fixed;fillColor=#d5e8d4;strokeColor=#82b366;" vertex="1" parent="1">
          <mxGeometry x="400" y="210" width="80" height="80" as="geometry" />
        </mxCell>
        <mxCell id="Vb_1YllQr1_10Pe3Wf6P-10" value="Portal DB" style="shape=cylinder3;whiteSpace=wrap;html=1;boundedLbl=1;backgroundOutline=1;size=15;fillColor=#d5e8d4;strokeColor=#82b366;" vertex="1" parent="1">
          <mxGeometry x="600" y="200" width="60" height="80" as="geometry" />
        </mxCell>
        <mxCell id="Vb_1YllQr1_10Pe3Wf6P-13" value="" style="endArrow=classic;startArrow=classic;html=1;entryX=0;entryY=0.619;entryDx=0;entryDy=0;entryPerimeter=0;exitX=1;exitY=0.5;exitDx=0;exitDy=0;" edge="1" parent="1" source="Vb_1YllQr1_10Pe3Wf6P-9" target="Vb_1YllQr1_10Pe3Wf6P-10">
          <mxGeometry width="50" height="50" relative="1" as="geometry">
            <mxPoint x="500" y="249.5" as="sourcePoint" />
            <mxPoint x="590" y="249.5" as="targetPoint" />
          </mxGeometry>
        </mxCell>
        <mxCell id="Vb_1YllQr1_10Pe3Wf6P-14" value="3. send Quote data to &lt;br&gt;service endpoint" style="text;html=1;align=center;verticalAlign=middle;resizable=0;points=[];autosize=1;" vertex="1" parent="1">
          <mxGeometry x="235" y="205" width="130" height="30" as="geometry" />
        </mxCell>
        <mxCell id="Vb_1YllQr1_10Pe3Wf6P-15" value="4. return the acknowledgement &lt;br&gt;- unique ID" style="text;html=1;align=center;verticalAlign=middle;resizable=0;points=[];autosize=1;" vertex="1" parent="1">
          <mxGeometry x="210" y="245" width="180" height="30" as="geometry" />
        </mxCell>
        <mxCell id="Vb_1YllQr1_10Pe3Wf6P-16" value="" style="endArrow=classic;html=1;exitX=0.125;exitY=1;exitDx=0;exitDy=0;exitPerimeter=0;" edge="1" parent="1" source="Vb_1YllQr1_10Pe3Wf6P-1">
          <mxGeometry width="50" height="50" relative="1" as="geometry">
            <mxPoint x="120" y="390" as="sourcePoint" />
            <mxPoint x="140" y="360" as="targetPoint" />
          </mxGeometry>
        </mxCell>
        <mxCell id="Vb_1YllQr1_10Pe3Wf6P-19" value="HRTG Portal / Browser" style="ellipse;whiteSpace=wrap;html=1;aspect=fixed;fillColor=#dae8fc;strokeColor=#6c8ebf;" vertex="1" parent="1">
          <mxGeometry x="100" y="360" width="90" height="90" as="geometry" />
        </mxCell>
        <mxCell id="Vb_1YllQr1_10Pe3Wf6P-20" value="5. return to Portal Browser &lt;br&gt;as QueryParams" style="text;html=1;align=center;verticalAlign=middle;resizable=0;points=[];autosize=1;rotation=-90;" vertex="1" parent="1">
          <mxGeometry x="30" y="235" width="160" height="30" as="geometry" />
        </mxCell>
        <mxCell id="Vb_1YllQr1_10Pe3Wf6P-22" value="" style="endArrow=classic;html=1;entryX=0.25;entryY=1;entryDx=0;entryDy=0;" edge="1" parent="1" target="Vb_1YllQr1_10Pe3Wf6P-9">
          <mxGeometry width="50" height="50" relative="1" as="geometry">
            <mxPoint x="190" y="400" as="sourcePoint" />
            <mxPoint x="415" y="404.54" as="targetPoint" />
            <Array as="points">
              <mxPoint x="420" y="400" />
            </Array>
          </mxGeometry>
        </mxCell>
        <mxCell id="Vb_1YllQr1_10Pe3Wf6P-23" value="6. API to fetch NGIC &lt;br&gt;data on browser" style="text;html=1;align=center;verticalAlign=middle;resizable=0;points=[];autosize=1;" vertex="1" parent="1">
          <mxGeometry x="230" y="360" width="120" height="30" as="geometry" />
        </mxCell>
      </root>
    </mxGraphModel>
  </diagram>
</mxfile>
